<svg width="300" height="300" viewBox="0 0 300 300" fill="none" xmlns="http://www.w3.org/2000/svg">
<path d="M149.4 76.1999C149.787 76.2997 150.174 76.3995 150.573 76.5023C166.978 80.8247 181.365 92.1995 190.8 106.2C191.291 105.405 191.291 105.405 191.791 104.594C199.22 92.7064 209.458 79.7582 223.322 75.1617C230.417 73.5773 235.431 74.731 241.987 77.6999C245.726 81.1778 247.227 86.2282 248.531 91.0406C249.376 93.4925 250.826 96.0131 253.2 97.1999C255.435 97.3001 257.666 97.378 259.903 97.405C263.134 97.5193 265.032 98.0604 267.6 100.2C268.65 101.662 268.65 101.662 269.4 103.2C269.611 103.626 269.822 104.052 270.039 104.491C270.765 106.703 270.749 108.786 270.717 111.087C270.714 111.779 270.714 111.779 270.712 112.486C270.705 113.953 270.69 115.42 270.675 116.887C270.669 117.885 270.663 118.884 270.658 119.882C270.645 122.321 270.624 124.76 270.6 127.2C270.996 127.2 271.392 127.2 271.8 127.2C271.931 127.526 272.063 127.851 272.198 128.187C273.132 130.294 273.808 131.716 275.7 133.087C277.55 133.715 279.35 134.179 281.25 134.625C287.152 136.051 291.753 138.229 295.2 143.4C299.169 151.259 295.789 164.073 293.198 171.998C290.353 179.878 285.216 186.503 279.6 192.6C279.252 192.997 278.904 193.393 278.545 193.802C270.897 202.085 257.254 210.031 245.876 210.716C243.935 210.759 241.996 210.793 240.055 210.81C239.227 210.82 238.398 210.836 237.57 210.859C228.147 211.12 219.582 208.113 212.409 201.832C208.629 198.22 205.064 194.348 202.8 189.6C202.404 189.6 202.008 189.6 201.6 189.6C200.99 190.63 200.423 191.686 199.875 192.75C195.513 200.36 189.324 205.491 181.2 208.8C180.789 208.97 180.379 209.141 179.956 209.316C175.023 211.083 169.906 210.929 164.737 210.9C164.016 210.899 164.016 210.899 163.28 210.897C155.867 210.865 149.173 210.283 142.2 207.6C141.406 207.315 140.612 207.031 139.819 206.747C136.761 205.612 133.793 204.33 130.903 202.816C130.527 202.62 130.151 202.424 129.763 202.222C128.726 201.671 127.699 201.103 126.672 200.534C124.452 199.664 123.511 199.973 121.2 200.4C112.095 200.931 103.093 200.637 94.0873 199.237C84.0746 197.694 74.0653 197.677 63.9509 197.65C46.6532 197.556 29.5792 195.039 16.4482 182.742C6.63253 172.291 2.97729 159.406 3.37242 145.383C3.81456 136.254 6.04311 128.111 10.1998 120C10.6499 119.092 10.6499 119.092 11.1091 118.165C18.1639 105.035 30.3955 92.4471 44.3998 86.9999C44.9358 86.7741 45.4717 86.5482 46.024 86.3156C48.8429 85.5799 51.5491 85.6264 54.4498 85.6499C55.2944 85.643 55.2944 85.643 56.156 85.6359C61.8334 85.6516 66.9882 86.7241 72.2998 88.6874C72.7679 88.8592 73.2361 89.0309 73.7185 89.2079C80.7847 91.9129 87.493 95.519 94.1998 98.9999C95.162 97.7272 96.0985 96.4542 96.9935 95.1327C102.982 86.429 111.195 80.2214 121.2 76.7999C121.762 76.5772 122.324 76.3544 122.904 76.1249C131.511 72.9991 140.693 73.9051 149.4 76.1999Z" fill="#FDDD59"/>
<path d="M54.4498 85.65C55.2944 85.6431 55.2944 85.6431 56.156 85.636C61.833 85.6517 66.9888 86.7234 72.2998 88.6875C72.7684 88.8602 73.237 89.0328 73.7198 89.2106C78.2992 90.9687 82.6862 93.1026 87.0748 95.2875C87.7689 95.6327 88.4631 95.9779 89.1783 96.3336C94.1214 98.8434 94.1214 98.8434 94.7998 100.2C94.5492 101.111 94.2541 102.01 93.9373 102.9C92.9223 106.065 92.8103 108.902 92.9998 112.2C93.5938 111.606 93.5938 111.606 94.1998 111C96.0618 110.802 97.2944 110.697 98.9248 111.675C99.9169 113.329 99.836 114.51 99.5998 116.4C98.9248 117.525 98.9248 117.525 97.7998 118.2C95.9428 118.352 94.679 118.44 92.9998 117.6C93.7807 120.048 93.7807 120.048 94.7998 122.4C95.7859 122.833 96.7861 123.236 97.7998 123.6C97.7564 124.367 97.7131 125.133 97.6685 125.923C97.3102 132.785 97.1223 139.642 97.0934 146.513C97.0893 147.381 97.0832 148.248 97.075 149.116C97.0341 153.768 97.1446 158.093 98.3998 162.6C98.602 163.399 98.8026 164.199 98.9998 165C102.636 163.757 103.793 159.659 105.393 156.448C106.002 155.232 106.633 154.029 107.265 152.825C109.533 148.388 110.829 144.747 110.956 139.676C111.111 133.746 113.63 126.549 117.708 122.208C121.163 119.047 123.552 117.32 128.294 117.452C131.049 117.764 132.519 119.226 134.25 121.238C136.261 123.864 136.574 125.742 136.2 129C135.154 133.171 133.648 137.082 130.2 139.8C127.86 141.146 125.468 142.31 123 143.4C122.679 147.524 123.139 151.315 124.05 155.325C124.144 155.76 124.238 156.195 124.335 156.643C124.989 159.354 125.854 161.115 127.8 163.2C130.006 163.068 130.765 162.633 132.394 161.084C132.971 160.409 133.539 159.726 134.1 159.038C134.405 158.673 134.71 158.309 135.024 157.933C138.618 153.568 141.883 148.952 145.13 144.326C145.8 143.4 145.8 143.4 146.4 142.8C146.567 141.151 146.699 139.512 146.81 137.859C146.884 136.836 146.959 135.813 147.034 134.789C147.149 133.171 147.262 131.553 147.373 129.935C147.481 128.376 147.595 126.818 147.71 125.259C147.741 124.778 147.773 124.297 147.805 123.801C147.991 121.314 148.292 119.278 149.4 117C150.413 117.053 151.425 117.118 152.437 117.188C153.283 117.24 153.283 117.24 154.146 117.293C156 117.6 156 117.6 157.919 118.505C160.733 119.792 163.602 119.693 166.65 119.738C167.772 119.758 168.894 119.784 170.015 119.815C170.507 119.822 170.999 119.83 171.505 119.837C172.8 120 172.8 120 174.6 121.2C175.251 124.774 174.429 128.511 173.746 132.026C172.232 139.95 171.962 147.695 171.975 155.738C171.974 156.276 171.973 156.814 171.972 157.369C171.972 158.926 171.983 160.483 171.998 162.04C172 162.501 172.001 162.961 172.003 163.436C172.058 166.678 172.593 169.663 173.4 172.8C175.766 172.36 176.87 171.387 178.383 169.498C184.215 160.911 188.068 150.098 189.975 139.95C191.117 134.032 193.538 129.802 198.394 126.204C201.624 124.357 204.36 124.071 208.05 124.163C210.925 124.36 210.925 124.36 213.6 123.6C214.698 123.527 215.799 123.495 216.9 123.488C217.488 123.479 218.075 123.471 218.681 123.462C220.2 123.6 220.2 123.6 221.4 124.8C221.527 126.548 221.568 128.226 221.55 129.975C221.547 130.522 221.545 131.068 221.543 131.631C221.477 137.167 221.095 142.682 220.714 148.203C220.22 155.41 220.062 162.576 220.2 169.8C220.596 169.8 220.992 169.8 221.4 169.8C222.234 168.643 222.965 167.502 223.687 166.275C223.917 165.888 224.146 165.5 224.382 165.101C226.706 161.093 228.827 156.98 230.925 152.85C231.26 152.197 231.596 151.545 231.942 150.872C233.954 146.849 235.415 142.986 236.4 138.6C236.527 138.045 236.655 137.489 236.786 136.917C237.17 135.206 237.537 133.491 237.9 131.775C238.16 130.568 238.42 129.361 238.68 128.154C239.018 126.579 239.356 125.005 239.691 123.429C239.927 122.323 240.17 121.218 240.412 120.113C240.538 119.527 240.664 118.942 240.794 118.338C241.2 117 241.2 117 242.4 115.8C244.786 115.745 246.246 116.391 247.987 117.938C251.274 121.478 253.381 125.95 255.6 130.2C255.805 130.591 256.009 130.981 256.22 131.383C261.6 141.71 261.6 141.71 261.6 145.2C265.38 143.956 268.661 142.606 271.964 140.384C273.346 139.605 274.447 139.557 276 139.8C275.789 141.48 275.493 142.113 274.24 143.29C270.747 145.726 267.562 147.27 263.4 148.2C263.499 148.794 263.598 149.388 263.7 150C265.143 162.062 265.143 162.062 262.352 166.477C259.413 170.084 255.891 171.748 251.355 172.371C248.334 172.508 245.592 171.94 243 170.4C240.569 168.122 238.735 165.96 238.537 162.563C238.605 159.033 239.99 156.72 242.4 154.2C245.224 152.061 248.233 150.371 251.4 148.8C251.158 143.947 249.631 140.018 247.762 135.563C247.479 134.871 247.195 134.18 246.903 133.468C246.208 131.776 245.507 130.087 244.8 128.4C243.593 131.752 242.731 134.949 242.212 138.488C240.821 147.026 237.964 155.153 235.05 163.275C234.845 163.848 234.64 164.421 234.429 165.011C234.235 165.541 234.041 166.071 233.84 166.617C233.668 167.088 233.497 167.558 233.319 168.043C232.8 169.2 232.8 169.2 231.6 170.4C229.93 170.525 228.907 170.554 227.4 169.8C227.168 170.133 226.936 170.465 226.697 170.808C226.384 171.243 226.072 171.677 225.75 172.125C225.443 172.557 225.137 172.988 224.822 173.433C223.06 175.445 221.726 175.768 219.075 176.025C216.455 175.942 214.984 175.159 213 173.4C210.324 169.806 209.636 165.742 208.8 161.4C208.628 160.545 208.628 160.545 208.453 159.673C208.14 157.358 208.135 155.107 208.162 152.775C208.165 152.333 208.168 151.892 208.17 151.437C208.177 150.358 208.188 149.279 208.2 148.2C207.804 148.2 207.408 148.2 207 148.2C206.888 148.67 206.777 149.141 206.662 149.625C205.217 153.271 202.801 157.015 199.8 159.6C197.617 160.328 196.093 160.437 193.8 160.2C192.164 158.686 192.164 158.686 190.8 157.2C190.353 158.135 190.353 158.135 189.897 159.089C182.767 173.816 182.767 173.816 176.4 177C175.24 177.089 174.076 177.133 172.912 177.15C172.29 177.166 171.667 177.181 171.026 177.197C168.568 176.932 167.033 176.076 165.335 174.291C160.932 167.479 160.401 159.555 160.537 151.688C160.542 151.043 160.542 151.043 160.548 150.386C160.602 143.762 161.085 137.308 162.366 130.8C162.725 128.957 163.014 127.103 163.312 125.25C163.474 124.3 163.636 123.35 163.8 122.4C163.452 122.414 163.104 122.428 162.745 122.442C159.831 122.51 157.542 122.325 154.8 121.2C154.808 121.525 154.816 121.85 154.825 122.184C154.89 126.992 154.516 131.754 154.087 136.538C154.049 136.969 154.011 137.4 153.972 137.845C153.279 145.502 152.061 152.97 150.349 160.47C150.112 161.507 149.884 162.546 149.663 163.587C148.865 167.335 148.865 167.335 148.2 168C146.4 168.075 146.4 168.075 144.6 168C144 167.4 144 167.4 143.92 166.071C143.922 165.532 143.923 164.993 143.925 164.438C143.923 163.9 143.922 163.362 143.92 162.809C144 161.4 144 161.4 144.6 160.2C144.738 158.777 144.846 157.352 144.937 155.925C144.988 155.156 145.038 154.387 145.09 153.595C145.126 153.003 145.162 152.41 145.2 151.8C144.961 152.133 144.722 152.466 144.476 152.808C143.384 154.325 142.286 155.838 141.187 157.35C140.812 157.874 140.436 158.397 140.049 158.937C137.457 162.493 135.164 165.477 130.8 166.8C126.992 167.252 123.253 167.26 119.885 165.272C116.069 162.206 113.954 158.071 112.2 153.6C111.387 155.094 110.59 156.594 109.8 158.1C109.571 158.518 109.342 158.935 109.106 159.366C106.593 164.211 107.238 168.309 108.6 173.4C108.731 173.893 108.863 174.386 108.998 174.894C111.652 184.255 116.3 192 123.766 198.281C124.278 198.736 124.278 198.736 124.8 199.2C124.8 199.398 124.8 199.596 124.8 199.8C114.897 201.642 103.98 200.775 94.0873 199.238C84.0746 197.694 74.0653 197.678 63.9509 197.65C46.6532 197.556 29.5792 195.039 16.4482 182.742C6.63253 172.291 2.97729 159.406 3.37242 145.383C3.81456 136.255 6.04311 128.111 10.1998 120C10.4999 119.394 10.8 118.789 11.1091 118.165C18.1639 105.035 30.3955 92.4472 44.3998 87C44.9358 86.7742 45.4717 86.5484 46.024 86.3157C48.8429 85.58 51.5491 85.6265 54.4498 85.65Z" fill="#72A188"/>
<path d="M149.4 76.2001C149.787 76.2999 150.175 76.3997 150.574 76.5025C165.586 80.458 178.039 90.0846 187.8 102C188.07 102.301 188.339 102.603 188.617 102.913C191.046 105.862 191.112 108.143 190.838 111.863C190.42 117.876 192.273 121.283 195.746 126.084C196.2 127.2 196.2 127.2 195.809 128.302C195.542 128.73 195.275 129.159 195 129.6C192.782 133.651 190.776 137.325 189.938 141.9C187.912 152.938 183.285 165.463 175.2 173.4C174.408 173.202 173.616 173.004 172.8 172.8C171.867 169.173 171.41 165.781 171.399 162.04C171.394 161.543 171.389 161.047 171.384 160.535C171.373 158.936 171.373 157.337 171.375 155.738C171.374 155.192 171.373 154.646 171.373 154.084C171.374 145.987 171.927 138.298 173.475 130.334C174.06 127.268 174.122 124.312 174 121.2C172.579 120.49 171.659 120.507 170.074 120.474C169.529 120.457 168.983 120.44 168.421 120.422C167.277 120.391 166.133 120.364 164.99 120.342C161.506 120.225 159.132 119.705 156 118.2C154.179 117.746 154.179 117.746 152.438 117.488C151.863 117.392 151.288 117.297 150.696 117.199C150.269 117.134 149.841 117.068 149.4 117C149.222 118.487 149.048 119.975 148.875 121.463C148.818 121.937 148.76 122.411 148.701 122.9C148.365 125.798 148.152 128.666 148.064 131.583C147.757 139.883 146.926 144.71 141 150.6C140.273 151.513 139.559 152.438 138.863 153.375C137.241 155.451 135.602 157.511 133.95 159.563C133.508 160.113 133.065 160.662 132.61 161.229C131.4 162.6 131.4 162.6 129.6 163.8C127.816 163.743 127.254 163.256 126.007 161.97C124.527 159.799 124 157.866 123.45 155.325C123.348 154.877 123.246 154.428 123.141 153.966C122.384 150.423 122.119 147.022 122.4 143.4C122.921 143.153 123.443 142.905 123.98 142.65C129.358 139.955 132.748 137.46 134.925 131.7C135.914 128.259 136.298 125.476 134.513 122.213C132.075 119.181 132.075 119.181 128.433 118.015C124.321 117.772 121.901 119.188 118.8 121.8C113.752 126.848 111.611 134.59 111.532 141.544C111.165 146.713 108.927 150.72 106.538 155.213C106.116 156.034 105.695 156.855 105.276 157.677C102.25 163.551 102.25 163.551 100.8 165C100.206 165 99.6122 165 99.0002 165C97.1374 160.951 96.5247 157.496 96.5205 153.002C96.5197 152.605 96.5189 152.207 96.5181 151.798C96.517 150.511 96.5208 149.224 96.5252 147.938C96.526 147.281 96.526 147.281 96.5268 146.612C96.5378 138.93 96.7667 131.271 97.2002 123.6C96.7284 123.438 96.2566 123.277 95.7705 123.11C94.2002 122.4 94.2002 122.4 93.0752 120.638C92.4002 118.8 92.4002 118.8 93.0002 117C93.3962 117.198 93.7922 117.396 94.2002 117.6C96.0002 117.75 96.0002 117.75 97.8002 117.6C99.1102 116.543 99.1102 116.543 99.1174 115.233C99.1035 114.801 99.0895 114.37 99.0752 113.925C99.0381 112.774 99.0381 112.774 99.0002 111.6C98.2453 111.575 97.4904 111.551 96.7127 111.525C96.0758 111.504 96.0758 111.504 95.426 111.483C94.012 111.521 94.012 111.521 92.4002 112.8C91.9417 103.868 94.8321 96.6501 100.8 89.9626C113.677 76.1199 131.344 71.4413 149.4 76.2001Z" fill="#FD904D"/>
<path d="M244.013 115.762C250.139 117.728 252.829 124.893 255.6 130.2C255.805 130.59 256.01 130.981 256.221 131.383C261.6 141.709 261.6 141.709 261.6 145.2C265.381 143.956 268.661 142.606 271.964 140.384C273.346 139.605 274.448 139.557 276 139.8C275.79 141.48 275.493 142.113 274.24 143.29C270.747 145.726 267.562 147.27 263.4 148.2C263.499 148.794 263.598 149.388 263.7 150C265.143 162.062 265.143 162.062 262.352 166.477C259.413 170.084 255.892 171.747 251.355 172.371C248.334 172.508 245.593 171.939 243 170.4C240.569 168.122 238.735 165.96 238.538 162.562C238.606 159.033 239.99 156.72 242.4 154.2C245.224 152.061 248.233 150.371 251.4 148.8C251.158 143.947 249.631 140.018 247.763 135.562C247.479 134.871 247.196 134.18 246.904 133.468C246.208 131.776 245.507 130.087 244.8 128.4C243.593 131.752 242.731 134.949 242.213 138.487C240.821 147.026 237.964 155.153 235.05 163.275C234.845 163.848 234.641 164.421 234.43 165.011C234.235 165.541 234.041 166.071 233.841 166.617C233.669 167.087 233.497 167.558 233.32 168.042C232.8 169.2 232.8 169.2 231.6 170.4C229.93 170.525 228.908 170.554 227.4 169.8C227.168 170.133 226.936 170.465 226.697 170.808C226.228 171.46 226.228 171.46 225.75 172.125C225.291 172.772 225.291 172.772 224.822 173.433C223.06 175.445 221.726 175.768 219.075 176.025C216.456 175.942 214.985 175.159 213 173.4C210.324 169.806 209.636 165.742 208.8 161.4C208.686 160.83 208.571 160.26 208.453 159.673C208.14 157.358 208.135 155.107 208.163 152.775C208.165 152.333 208.168 151.892 208.171 151.437C208.178 150.358 208.188 149.279 208.2 148.2C207.804 148.2 207.408 148.2 207 148.2C206.889 148.67 206.777 149.14 206.663 149.625C205.217 153.27 202.801 157.015 199.8 159.6C197.617 160.328 196.094 160.437 193.8 160.2C192.164 158.686 192.164 158.686 190.8 157.2C190.502 157.823 190.204 158.447 189.898 159.089C182.767 173.816 182.767 173.816 176.4 177C175.24 177.089 174.076 177.133 172.913 177.15C172.29 177.165 171.667 177.181 171.026 177.197C168.568 176.932 167.034 176.076 165.335 174.291C160.932 167.479 160.402 159.555 160.538 151.687C160.541 151.258 160.545 150.829 160.548 150.386C160.602 143.762 161.085 137.308 162.367 130.8C162.725 128.957 163.015 127.103 163.313 125.25C163.474 124.3 163.636 123.35 163.8 122.4C163.278 122.421 163.278 122.421 162.745 122.442C159.832 122.509 157.542 122.325 154.8 121.2C154.812 121.687 154.812 121.687 154.825 122.184C154.89 126.992 154.517 131.754 154.088 136.537C154.03 137.185 154.03 137.185 153.972 137.845C153.279 145.501 152.061 152.97 150.349 160.469C150.112 161.507 149.884 162.546 149.663 163.587C148.865 167.335 148.865 167.335 148.2 168C146.4 168.075 146.4 168.075 144.6 168C144 167.4 144 167.4 143.92 166.071C143.922 165.532 143.923 164.993 143.925 164.437C143.923 163.631 143.923 163.631 143.92 162.809C144 161.4 144 161.4 144.6 160.2C144.738 158.777 144.847 157.352 144.938 155.925C145.013 154.772 145.013 154.772 145.09 153.595C145.126 153.003 145.163 152.41 145.2 151.8C144.961 152.133 144.723 152.465 144.477 152.808C143.384 154.325 142.286 155.838 141.188 157.35C140.624 158.135 140.624 158.135 140.05 158.937C137.457 162.493 135.164 165.477 130.8 166.8C126.992 167.252 123.253 167.26 119.885 165.272C116.069 162.206 113.954 158.071 112.2 153.6C111.874 154.258 111.549 154.916 111.213 155.594C110.78 156.467 110.346 157.34 109.913 158.212C109.699 158.645 109.485 159.078 109.264 159.524C108.652 160.754 108.029 161.978 107.4 163.2C107.113 163.761 106.826 164.321 106.531 164.899C105.01 167.025 103.435 167.853 100.88 168.302C95.4019 168.409 95.4019 168.409 93 166.537C86.7538 160.078 87.9551 150.167 88.0243 141.914C88.1752 135.855 88.6461 128.356 91.8 123C92.6875 122.984 93.575 122.972 94.4625 122.962C94.9568 122.955 95.451 122.949 95.9602 122.941C97.2 123 97.2 123 97.8 123.6C97.7419 125.505 97.6482 127.398 97.5375 129.3C97.2497 135.038 97.1141 140.768 97.0931 146.512C97.0894 147.38 97.0836 148.248 97.0754 149.116C97.0345 153.768 97.1448 158.092 98.4 162.6C98.6023 163.399 98.8029 164.199 99 165C102.636 163.757 103.794 159.659 105.393 156.447C106.003 155.232 106.633 154.029 107.265 152.825C109.533 148.388 110.83 144.747 110.956 139.676C111.111 133.746 113.63 126.549 117.708 122.208C121.163 119.047 123.552 117.32 128.295 117.452C131.049 117.764 132.519 119.226 134.25 121.237C136.262 123.864 136.574 125.742 136.2 129C135.154 133.171 133.648 137.082 130.2 139.8C127.861 141.146 125.468 142.31 123 143.4C122.679 147.524 123.139 151.315 124.05 155.325C124.144 155.76 124.238 156.195 124.335 156.643C124.99 159.353 125.854 161.115 127.8 163.2C130.007 163.068 130.765 162.633 132.394 161.084C132.971 160.409 133.539 159.726 134.1 159.037C134.405 158.673 134.71 158.309 135.024 157.933C138.618 153.568 141.884 148.952 145.13 144.326C145.8 143.4 145.8 143.4 146.4 142.8C146.567 141.151 146.7 139.512 146.81 137.859C146.885 136.836 146.959 135.812 147.034 134.789C147.149 133.171 147.262 131.553 147.373 129.935C147.481 128.376 147.595 126.818 147.71 125.259C147.741 124.778 147.773 124.297 147.805 123.801C147.991 121.314 148.292 119.278 149.4 117C150.413 117.053 151.425 117.118 152.438 117.187C153.283 117.24 153.283 117.24 154.146 117.293C156 117.6 156 117.6 157.92 118.505C160.733 119.791 163.603 119.693 166.65 119.737C167.772 119.758 168.894 119.784 170.016 119.815C170.753 119.826 170.753 119.826 171.506 119.837C172.8 120 172.8 120 174.6 121.2C175.251 124.774 174.429 128.51 173.746 132.026C172.233 139.95 171.962 147.695 171.975 155.737C171.974 156.276 171.973 156.814 171.972 157.368C171.973 158.926 171.983 160.483 171.998 162.04C172.001 162.731 172.001 162.731 172.003 163.436C172.058 166.678 172.593 169.663 173.4 172.8C175.767 172.36 176.87 171.387 178.383 169.498C184.215 160.911 188.068 150.098 189.975 139.95C191.117 134.032 193.538 129.802 198.394 126.204C201.624 124.357 204.36 124.071 208.05 124.162C210.925 124.36 210.925 124.36 213.6 123.6C214.698 123.527 215.799 123.495 216.9 123.487C217.488 123.479 218.076 123.47 218.681 123.462C220.2 123.6 220.2 123.6 221.4 124.8C221.527 126.548 221.568 128.226 221.55 129.975C221.548 130.521 221.545 131.068 221.543 131.631C221.477 137.167 221.095 142.682 220.715 148.203C220.221 155.41 220.062 162.576 220.2 169.8C220.596 169.8 220.992 169.8 221.4 169.8C222.235 168.643 222.965 167.502 223.688 166.275C223.917 165.888 224.146 165.5 224.383 165.101C226.706 161.093 228.828 156.98 230.925 152.85C231.428 151.871 231.428 151.871 231.942 150.872C233.954 146.849 235.415 142.986 236.4 138.6C236.528 138.045 236.655 137.489 236.786 136.917C237.17 135.205 237.537 133.491 237.9 131.775C238.16 130.568 238.42 129.361 238.68 128.154C239.019 126.579 239.357 125.004 239.692 123.429C239.928 122.323 240.17 121.218 240.413 120.112C240.602 119.234 240.602 119.234 240.795 118.338C241.4 116.339 241.902 115.812 244.013 115.762Z" fill="#050402"/>
<path d="M154.8 121.2C159.255 121.794 159.255 121.794 163.8 122.4C163.8 127.052 163.8 127.052 163.275 128.962C161.59 135.944 161.176 143.133 161.178 150.289C161.175 151.54 161.153 152.789 161.131 154.039C161.069 161.286 161.995 167.906 166.2 174C166.2 174.396 166.2 174.792 166.2 175.2C169.579 176.75 172.738 176.794 176.4 176.4C178.478 175.565 178.478 175.565 180 174C180.279 173.743 180.557 173.486 180.844 173.222C185.192 168.735 187.827 162.301 190.2 156.6C190.707 157.095 191.215 157.59 191.738 158.1C193.299 159.397 193.815 159.602 195.938 159.9C199.304 159.41 201.126 157.842 203.4 155.4C203.136 158.146 202.688 160.568 201.863 163.2C200.009 170.242 199.682 180.287 202.027 187.27C202.447 190.01 200.038 192.814 198.6 195C196.92 197.131 195.113 199.077 193.2 201C192.838 201.383 192.476 201.766 192.103 202.16C186.596 207.536 178.048 210.761 170.466 210.823C170.023 210.829 169.58 210.836 169.124 210.843C167.699 210.859 166.275 210.863 164.85 210.862C164.365 210.863 163.879 210.864 163.379 210.864C155.918 210.85 149.222 210.292 142.2 207.6C141.414 207.322 140.627 207.045 139.84 206.768C128.463 202.616 118.658 196.99 112.8 186C112.532 185.511 112.263 185.022 111.987 184.519C110.228 181.011 109.137 177.36 108.113 173.587C107.981 173.11 107.849 172.632 107.714 172.14C106.299 166.645 106.593 162.882 109.2 157.8C109.429 157.335 109.658 156.87 109.894 156.391C110.454 155.257 111.026 154.128 111.6 153C113.141 154.469 113.964 155.786 114.863 157.725C116.677 161.419 118.336 164.015 122.156 165.762C125.714 166.842 129.782 166.824 133.275 165.487C136.889 163.387 139.218 159.345 141.6 156C142.31 155.035 143.022 154.072 143.738 153.112C144.011 152.737 144.284 152.362 144.565 151.976C144.879 151.592 144.879 151.592 145.2 151.2C145.398 151.2 145.596 151.2 145.8 151.2C145.716 152.675 145.628 154.15 145.538 155.625C145.514 156.044 145.49 156.463 145.466 156.895C145.268 160.064 145.268 160.064 144.6 161.4C144.558 162.424 144.549 163.45 144.563 164.475C144.568 165.021 144.573 165.567 144.579 166.13C144.586 166.549 144.593 166.968 144.6 167.4C145.788 167.4 146.976 167.4 148.2 167.4C148.369 166.637 148.537 165.875 148.711 165.089C149.045 163.578 149.384 162.069 149.742 160.564C152.812 147.613 153.727 134.434 154.8 121.2Z" fill="#FD904D"/>
<path d="M89.9999 102.6C89.8019 103.59 89.6039 104.58 89.3999 105.6C85.0314 105.739 80.9648 105.514 76.6733 104.663C73.384 104.065 73.384 104.065 70.3335 105.068C66.2649 111.346 67.0967 122.42 66.5999 129.6C68.2003 129.531 69.8 129.455 71.3999 129.375C71.8462 129.356 72.2924 129.338 72.7522 129.319C75.8491 129.157 78.6052 128.6 81.5999 127.8C83.3999 127.725 83.3999 127.725 84.5999 127.8C84.8969 128.988 84.8969 128.988 85.1999 130.2C80.5235 132.486 75.7386 133.125 70.5819 133.533C69.9452 133.584 69.3084 133.635 68.6523 133.687C68.173 133.724 67.6937 133.762 67.1999 133.8C67.185 136.372 67.1741 138.944 67.1669 141.516C67.1639 142.39 67.1599 143.263 67.1546 144.136C67.1473 145.398 67.1439 146.66 67.1413 147.921C67.1382 148.678 67.135 149.436 67.1318 150.216C67.1995 152.388 67.4799 154.452 67.7999 156.6C67.9193 158.962 67.9109 161.323 67.9124 163.688C67.9197 164.317 67.9271 164.946 67.9347 165.594C67.9358 166.194 67.937 166.794 67.9382 167.412C67.9406 167.957 67.9431 168.502 67.9457 169.064C67.7999 170.4 67.7999 170.4 66.5999 171.6C64.6452 171.717 64.6452 171.717 62.3249 171.675C61.1717 171.659 61.1717 171.659 59.9952 171.642C59.4028 171.628 58.8103 171.614 58.1999 171.6C56.6869 169.241 56.5722 166.633 56.3249 163.913C56.274 163.364 56.223 162.815 56.1705 162.249C55.3918 152.405 55.703 142.467 55.7999 132.6C55.3167 132.793 55.3167 132.793 54.8237 132.99C54.3972 133.156 53.9706 133.322 53.5312 133.493C53.11 133.659 52.6889 133.824 52.255 133.995C50.6053 134.527 49.1179 134.529 47.3999 134.4C47.3999 133.608 47.3999 132.816 47.3999 132C50.0204 129.773 52.515 129.08 55.7999 128.4C55.8223 127.919 55.8448 127.438 55.8679 126.942C56.1123 122.716 56.5369 118.557 57.1874 114.375C57.2823 113.713 57.2823 113.713 57.3791 113.037C58.0396 109.016 59.3779 105 62.6624 102.375C62.9958 102.098 63.3291 101.821 63.6726 101.536C70.2933 97.2139 83.0585 99.4386 89.9999 102.6Z" fill="#020303"/>
<path d="M97.8002 126.6C104.493 131.62 104.314 143.711 105.418 151.283C105.822 155.085 105.497 157.292 103.65 160.688C103.288 161.372 102.926 162.057 102.553 162.762C101.4 164.4 101.4 164.4 100.06 164.932C99.5352 164.966 99.5352 164.966 99.0002 165C97.1095 160.89 96.5246 157.395 96.5205 152.834C96.52 152.421 96.5194 152.008 96.5188 151.582C96.5184 150.709 96.5195 149.836 96.522 148.963C96.5252 147.66 96.522 146.357 96.5182 145.054C96.5103 130.47 96.5103 130.47 97.8002 126.6Z" fill="#729F86"/>
<path d="M209.4 127.8C210 128.4 210 128.4 210.15 130.556C210.112 133.201 209.331 135.334 208.2 137.7C208.013 138.108 207.826 138.516 207.633 138.936C207.034 140.23 206.419 141.516 205.8 142.8C205.595 143.228 205.39 143.657 205.178 144.098C203.008 148.607 200.78 153.03 198 157.2C197.208 157.002 196.416 156.804 195.6 156.6C195.121 147.237 196.475 137.873 202.835 130.584C205.034 128.506 206.276 127.49 209.4 127.8Z" fill="#F68D4A"/>
<path d="M139.8 221.4C140.988 221.4 142.176 221.4 143.4 221.4C145.578 225.558 147.756 229.716 150 234C150.198 229.842 150.396 225.684 150.6 221.4C151.392 221.4 152.184 221.4 153 221.4C153 227.142 153 232.884 153 238.8C151.812 238.8 150.624 238.8 149.4 238.8C147.222 234.642 145.044 230.484 142.8 226.2C142.602 230.358 142.404 234.516 142.2 238.8C141.408 238.8 140.616 238.8 139.8 238.8C139.8 233.058 139.8 227.316 139.8 221.4Z" fill="#040404"/>
<path d="M253.8 152.4C255.306 156.637 255.91 161.359 254.213 165.637C253.2 167.4 253.2 167.4 251.4 168.6C249.228 168.507 248.113 168.253 246.413 166.875C244.581 164.568 244.558 162.461 244.8 159.6C246.432 156.267 249.86 152.4 253.8 152.4Z" fill="#F5D555"/>
<path d="M250.2 220.8C252.132 221.86 253.527 223.079 254.325 225.188C254.35 225.522 254.375 225.856 254.4 226.2C253.05 226.35 253.05 226.35 251.4 226.2C250.6 225.4 249.8 224.6 249 223.8C247.449 223.5 247.449 223.5 246 223.8C245.604 224.196 245.208 224.592 244.8 225C244.8 225.594 244.8 226.188 244.8 226.8C246.37 227.716 247.8 228.138 249.563 228.488C252.094 229.104 253.487 230.004 255 232.2C255 234.395 254.888 235.764 253.538 237.525C250.917 239.412 247.91 239.123 244.8 238.8C242.925 237.788 242.925 237.788 241.8 236.4C241.313 234.75 241.313 234.75 241.2 233.4C242.588 233.25 242.588 233.25 244.2 233.4C244.46 233.796 244.72 234.192 244.988 234.6C245.868 235.916 245.868 235.916 247.177 235.959C248.386 235.951 249.594 235.879 250.8 235.8C250.998 234.81 251.196 233.82 251.4 232.8C250.324 232.41 250.324 232.41 249.225 232.013C243.757 229.957 243.757 229.957 241.8 228C241.5 226.013 241.5 226.013 241.8 223.8C244.192 220.99 246.52 219.878 250.2 220.8Z" fill="#141414"/>
<path d="M216 220.8C217.932 221.86 219.327 223.079 220.125 225.188C220.15 225.522 220.175 225.856 220.2 226.2C218.85 226.35 218.85 226.35 217.2 226.2C216.4 225.4 215.6 224.6 214.8 223.8C213.249 223.5 213.249 223.5 211.8 223.8C211.404 224.196 211.008 224.592 210.6 225C210.6 225.594 210.6 226.188 210.6 226.8C212.17 227.716 213.6 228.138 215.363 228.488C217.894 229.104 219.287 230.004 220.8 232.2C220.8 234.395 220.688 235.764 219.338 237.525C216.717 239.412 213.71 239.123 210.6 238.8C208.725 237.788 208.725 237.788 207.6 236.4C207.113 234.75 207.113 234.75 207 233.4C208.388 233.25 208.388 233.25 210 233.4C210.26 233.796 210.52 234.192 210.788 234.6C211.668 235.916 211.668 235.916 212.977 235.959C214.186 235.951 215.394 235.879 216.6 235.8C216.798 234.81 216.996 233.82 217.2 232.8C216.123 232.41 216.123 232.41 215.025 232.013C209.557 229.957 209.557 229.957 207.6 228C207.3 226.013 207.3 226.013 207.6 223.8C209.992 220.99 212.32 219.878 216 220.8Z" fill="#141414"/>
<path d="M175.2 221.4C178.962 221.4 182.724 221.4 186.6 221.4C186.6 222.192 186.6 222.984 186.6 223.8C183.63 223.8 180.66 223.8 177.6 223.8C177.6 225.384 177.6 226.968 177.6 228.6C180.174 228.6 182.748 228.6 185.4 228.6C185.4 229.392 185.4 230.184 185.4 231C182.826 231 180.252 231 177.6 231C177.6 232.782 177.6 234.564 177.6 236.4C180.57 236.4 183.54 236.4 186.6 236.4C186.6 237.192 186.6 237.984 186.6 238.8C182.838 238.8 179.076 238.8 175.2 238.8C175.2 233.058 175.2 227.316 175.2 221.4Z" fill="#080808"/>
<path d="M209.4 127.8C210 128.4 210 128.4 210.162 130.528C210.124 133.395 209.223 135.587 208.012 138.15C207.827 138.566 207.642 138.982 207.451 139.411C206.489 141.526 205.503 143.405 204 145.2C204 144.804 204 144.408 204 144C203.604 144 203.208 144 202.8 144C202.494 142.876 202.196 141.751 201.9 140.625C201.733 139.998 201.566 139.372 201.394 138.726C200.443 134.076 200.443 134.076 201.876 131.819C202.445 131.222 202.445 131.222 203.025 130.612C203.401 130.206 203.777 129.8 204.164 129.382C205.891 127.744 207.072 127.68 209.4 127.8Z" fill="#FBD857"/>
<path d="M49.7998 221.4C53.5618 221.4 57.3238 221.4 61.1998 221.4C61.1998 222.192 61.1998 222.984 61.1998 223.8C58.2298 223.8 55.2598 223.8 52.1998 223.8C52.1998 225.384 52.1998 226.968 52.1998 228.6C54.7738 228.6 57.3478 228.6 59.9998 228.6C59.9998 229.392 59.9998 230.184 59.9998 231C57.4258 231 54.8518 231 52.1998 231C52.1998 233.574 52.1998 236.148 52.1998 238.8C51.4078 238.8 50.6158 238.8 49.7998 238.8C49.7998 233.058 49.7998 227.316 49.7998 221.4Z" fill="#090909"/>
<path d="M105 221.4C109.554 221.4 114.108 221.4 118.8 221.4C118.8 222.192 118.8 222.984 118.8 223.8C117.018 223.8 115.236 223.8 113.4 223.8C113.4 228.75 113.4 233.7 113.4 238.8C112.41 238.8 111.42 238.8 110.4 238.8C110.4 233.85 110.4 228.9 110.4 223.8C108.618 223.8 106.836 223.8 105 223.8C105 223.008 105 222.216 105 221.4Z" fill="#141414"/>
<path d="M126.6 122.4C127.762 122.625 127.762 122.625 129 123C130.368 125.737 129.978 129.457 129.169 132.33C127.992 135.154 126.598 137.233 124.2 139.2C123.606 139.398 123.012 139.596 122.4 139.8C122.279 136.593 122.677 133.859 123.487 130.762C123.587 130.354 123.686 129.945 123.788 129.524C124.441 126.962 125.328 124.736 126.6 122.4Z" fill="#F28A49"/>
<path d="M81.6001 221.4C82.5901 221.4 83.5801 221.4 84.6001 221.4C84.6001 227.142 84.6001 232.884 84.6001 238.8C83.6101 238.8 82.6201 238.8 81.6001 238.8C81.6001 233.058 81.6001 227.316 81.6001 221.4Z" fill="#1A1A1A"/>
<path d="M97.7998 111C98.9248 111.675 98.9248 111.675 99.5998 112.8C99.836 114.69 99.9169 115.872 98.9248 117.525C97.2883 118.507 96.072 118.395 94.1998 118.2C93.6058 117.804 93.0118 117.408 92.3998 117C92.1758 114.947 92.0172 113.459 93.0748 111.638C94.7337 110.698 95.9289 110.766 97.7998 111Z" fill="#0C0703"/>
</svg>
